<svg class="sport-icon" style="display:none;">
  <symbol fill="currentColor" id="ball" viewBox="0 0 488.839 488.839">
    <path d="M264.32,39.487c5.529-7.328,4.64-22.871,3.853-36.582c-0.03-0.591-0.063-1.169-0.096-1.756
      C260.327,0.409,252.482,0,244.542,0c-30.425,0-59.537,5.605-86.406,15.766c19.167,9.211,48.836,25.065,81.814,48.49
      C251.202,54.573,259.688,45.634,264.32,39.487z"/>
    <path d="M388.163,178.955c-12.047,1.361-22.207,3.338-30.896,6.111c41.537,72.522,57.732,164.145,61.695,230.522
      c41.15-41.928,67.283-98.609,69.754-161.393C460.362,219.343,422.8,175.026,388.163,178.955z"/>
    <path d="M141.232,116.356c29.185-6.073,56.604-20.762,78.466-36.267c-45.608-31.412-83.648-47.714-91.215-50.817
      C81.166,54.851,43.302,95.606,21.274,144.987c28.632-11.408,59.641-17.212,90.098-22.867
      C121.225,120.29,131.41,118.399,141.232,116.356z"/>
    <path d="M310.171,123.463c2.605,2.618,5.203,5.281,7.783,7.994c9.521,9.995,18.16,20.927,26.082,32.493
      c11.537-4.356,25.119-7.445,41.377-9.283c38.307-4.333,72.369,26.012,101.604,59.42c-6.268-50.645-27.989-96.482-60.354-132.631
      c-17.666,2.129-37.361,5.736-57.435,11.726C356.06,97.115,335.089,107.801,310.171,123.463z"/>
    <path d="M278.011,249.688c10.025-33.955,21.637-58.432,44.135-74.32c-6.752-9.693-14.018-18.79-21.889-27.054
      c-3.641-3.824-7.323-7.517-11.021-11.145c-90.263,61.439-213.906,174.3-225.149,272.086
      c37.53,41.062,88.892,69.222,146.712,77.211c21.053-41.915,40.868-127.124,52.646-177.801
      C269.104,284.324,273.988,263.307,278.011,249.688z"/>
    <path d="M175.668,195.843c31.472-29.001,64.708-55.007,95.107-75.908c-10.133-8.965-20.297-17.229-30.275-24.808
      c-25.249,18.98-58.307,37.674-94.291,45.158c-10.077,2.097-20.396,4.014-30.372,5.866
      c-38.438,7.138-75.336,14.051-106.366,31.364c-6.043,21.271-9.348,43.697-9.348,66.905c0,51.917,16.238,100.02,43.839,139.604
      C61.843,313.227,123.175,244.214,175.668,195.843z"/>
    <path d="M291.829,105.975c29.078-18.538,54.147-31.356,70.412-36.211c14.606-4.362,28.934-7.539,42.502-9.856
      c-31.353-27.245-69.678-46.663-111.986-55.127c0.938,17.07,1.347,35.811-8.922,49.427c-4.879,6.466-13.133,15.334-23.873,24.955
      C270.48,87.35,281.169,96.278,291.829,105.975z"/>
    <path d="M301.45,256.609c-3.816,12.928-8.63,33.625-14.199,57.588c-16.444,70.755-32.179,134.067-50.555,174.442
      c2.609,0.083,5.217,0.199,7.846,0.199c56.963,0,109.328-19.539,150.885-52.206c-1.641-69.461-18.293-167.71-60.238-240.643
      C318.921,208.08,310.165,227.101,301.45,256.609z"/>
  </symbol>
  <symbol fill="currentColor" id="gear" viewBox="0 0 32 32">
    <path d="M30.391,12.679l-3.064-0.614c-0.154-0.443-0.336-0.873-0.537-1.289l1.736-2.604
			c0.529-0.793,0.424-1.85-0.25-2.523l-1.924-1.924c-0.387-0.387-0.898-0.586-1.416-0.586c-0.383,0-0.77,0.11-1.107,0.336
			L21.225,5.21c-0.418-0.202-0.848-0.382-1.291-0.536L19.32,1.609c-0.186-0.936-1.008-1.608-1.961-1.608h-2.72
			c-0.953,0-1.774,0.673-1.961,1.608l-0.614,3.065c-0.443,0.154-0.873,0.335-1.289,0.536L8.172,3.475
			C7.833,3.249,7.447,3.139,7.063,3.139c-0.517,0-1.028,0.199-1.415,0.586L3.725,5.649c-0.674,0.674-0.779,1.73-0.25,2.523
			l1.735,2.604c-0.202,0.417-0.382,0.847-0.536,1.29l-3.066,0.613C0.673,12.865,0,13.686,0,14.639v2.72
			c0,0.953,0.673,1.775,1.608,1.961l3.065,0.615c0.154,0.443,0.335,0.873,0.536,1.289l-1.734,2.604
			c-0.529,0.793-0.424,1.85,0.25,2.523l1.924,1.924c0.387,0.387,0.898,0.586,1.415,0.586c0.384,0,0.771-0.111,1.108-0.336
			l2.604-1.736c0.417,0.203,0.847,0.383,1.29,0.537l0.613,3.064C12.866,31.327,13.687,32,14.64,32h2.72
			c0.953,0,1.775-0.674,1.961-1.609l0.615-3.064c0.443-0.154,0.873-0.336,1.289-0.537l2.604,1.736
			c0.338,0.225,0.725,0.336,1.107,0.336c0.518,0,1.029-0.199,1.416-0.586l1.924-1.924c0.674-0.674,0.779-1.73,0.25-2.523
			l-1.736-2.604c0.203-0.418,0.383-0.848,0.537-1.291l3.064-0.613C31.326,19.135,32,18.312,32,17.36v-2.72
			C32,13.686,31.326,12.865,30.391,12.679z M26.934,17.974c-0.695,0.139-1.264,0.635-1.496,1.305
			c-0.129,0.369-0.279,0.727-0.447,1.074c-0.311,0.639-0.258,1.393,0.135,1.982l1.736,2.604l-1.924,1.924l-2.604-1.736
			c-0.334-0.223-0.721-0.336-1.109-0.336c-0.297,0-0.596,0.066-0.871,0.199c-0.348,0.168-0.705,0.32-1.076,0.449
			c-0.668,0.232-1.164,0.801-1.303,1.496L17.36,30h-2.72l-0.613-3.066c-0.139-0.695-0.635-1.264-1.304-1.496
			c-0.369-0.129-0.728-0.279-1.075-0.447c-0.276-0.135-0.574-0.201-0.872-0.201c-0.389,0-0.775,0.113-1.109,0.336l-2.604,1.736
			l-1.924-1.924l1.735-2.604c0.393-0.59,0.444-1.344,0.137-1.98c-0.168-0.348-0.319-0.705-0.448-1.076
			c-0.232-0.668-0.802-1.164-1.496-1.303l-3.065-0.615L2,14.639l3.066-0.613c0.694-0.139,1.264-0.635,1.496-1.304
			c0.129-0.369,0.278-0.728,0.447-1.075c0.31-0.638,0.258-1.392-0.136-1.981L5.139,7.063l1.923-1.924l2.604,1.735
			C10,7.097,10.387,7.21,10.775,7.21c0.297,0,0.595-0.066,0.871-0.199c0.347-0.168,0.705-0.319,1.075-0.448
			c0.669-0.232,1.165-0.802,1.304-1.496l0.614-3.065l2.72-0.001l0.613,3.066c0.139,0.694,0.635,1.264,1.305,1.496
			c0.369,0.129,0.727,0.278,1.074,0.447c0.277,0.134,0.574,0.2,0.873,0.2c0.389,0,0.775-0.113,1.109-0.336l2.604-1.735l1.924,1.924
			l-1.736,2.604c-0.393,0.59-0.443,1.343-0.137,1.98c0.168,0.347,0.32,0.705,0.449,1.075c0.232,0.669,0.801,1.165,1.496,1.304
			l3.064,0.614L30,17.36L26.934,17.974z"/>
		<path d="M16,9c-3.865,0-7,3.135-7,7c0,3.866,3.135,7,7,7s7-3.135,7-7S19.865,9,16,9z M16,22.126
			c-3.382,0-6.125-2.744-6.125-6.125c0-3.382,2.743-6.125,6.125-6.125c3.381,0,6.125,2.743,6.125,6.125
			C22.125,19.382,19.381,22.126,16,22.126z"/>
		<path d="M16,12c-2.21,0-4,1.79-4,4c0,2.209,1.79,4,4,4c2.209,0,4-1.791,4-4S18.209,12,16,12z M16,19.001
			c-1.656,0-3-1.344-3-3s1.344-3,3-3s3,1.344,3,3S17.656,19.001,16,19.001z"/>
  </symbol>
  <symbol fill="currentColor" id="run" viewBox="0 0 18.467 18.467">
    <path d="M17.109,5.454c-0.242-0.289-0.673-0.327-0.962-0.086l-1.894,1.591l-0.871-2.158
			c-0.031-0.081-0.078-0.149-0.132-0.209c-0.178-0.396-0.487-0.736-0.913-0.933c-0.185-0.084-0.376-0.129-0.567-0.151
			c-0.042-0.022-0.08-0.051-0.128-0.066L8.309,2.513C8.122,2.462,7.934,2.495,7.78,2.585C7.597,2.647,7.44,2.78,7.365,2.973
			L6.11,6.2C5.974,6.551,6.148,6.947,6.5,7.085c0.35,0.136,0.747-0.039,0.884-0.391l1.06-2.725l1.518,0.422
			c-0.037,0.06-0.077,0.116-0.107,0.18L7.909,8.789C7.881,8.851,7.866,8.914,7.846,8.978l-2.365,3.965l-3.958,1.324
			c-0.448,0.335-0.543,0.966-0.212,1.414c0.333,0.449,0.966,0.544,1.413,0.213l4.05-1.395c0.124-0.09,0.214-0.208,0.282-0.335
			C7.107,14.11,7.165,14.067,7.204,14l1.41-2.364l2.503,2.133l-2.678,3.018c-0.369,0.416-0.332,1.057,0.086,1.425
			c0.417,0.371,1.056,0.332,1.427-0.086l3.342-3.765c0.104-0.116,0.166-0.25,0.208-0.39c0.025-0.076,0.025-0.155,0.031-0.234
			c0-0.04,0.015-0.076,0.012-0.113c-0.009-0.276-0.121-0.544-0.347-0.735l-2.303-1.964c0.166-0.158,0.307-0.346,0.409-0.567
			l1.492-3.231L13.274,8.4c0.02,0.113,0.058,0.224,0.138,0.317c0.072,0.086,0.164,0.143,0.262,0.183
			c0.01,0.005,0.022,0.006,0.034,0.009c0.062,0.022,0.125,0.043,0.19,0.046c0.077,0.007,0.155-0.003,0.234-0.025
			c0.002-0.001,0.003-0.001,0.003-0.001c0.021-0.005,0.042-0.001,0.063-0.01c0.111-0.042,0.196-0.113,0.269-0.196l2.718-2.307
			C17.474,6.173,17.352,5.743,17.109,5.454z"/>
		<circle cx="13.671" cy="1.905" r="1.905"/>
  </symbol>
  <symbol fill="currentColor" id="search" viewBox="0 0 24 24">
    <path d="M23.809 21.646l-6.205-6.205c1.167-1.605 1.857-3.579 1.857-5.711 0-5.365-4.365-9.73-9.731-9.73-5.365 0-9.73 4.365-9.73 9.73 0 5.366 4.365 9.73 9.73 9.73 2.034 0 3.923-.627 5.487-1.698l6.238 6.238 2.354-2.354zm-20.955-11.916c0-3.792 3.085-6.877 6.877-6.877s6.877 3.085 6.877 6.877-3.085 6.877-6.877 6.877c-3.793 0-6.877-3.085-6.877-6.877z"/>
  </symbol>
  <symbol fill="currentColor" id="warning" viewBox="0 0 64 64">
    <path d="M31.939,0C14.328,0,0,14.329,0,31.941s14.328,31.941,31.939,31.941c17.615,0,31.943-14.329,31.943-31.941    S49.555,0,31.939,0z M31.939,59.891c-15.409,0-27.947-12.538-27.947-27.949S16.53,3.992,31.939,3.992    c15.411,0,27.951,12.538,27.951,27.949S47.351,59.891,31.939,59.891z"/>
    <circle cx="32.479" cy="51.574" r="2.246"/>
    <path d="m32.479,45.499c1.103,0 1.996-0.894 1.996-1.996v-28.771c0-1.102-0.894-1.996-1.996-1.996-1.104,0-1.997,0.895-1.997,1.996v28.771c-0.001,1.102 0.892,1.996 1.997,1.996z"/>
  </symbol>
  <symbol fill="currentColor" id="close" viewBox="0 0 15.642 15.642">
    <path fill-rule="evenodd" d="M8.882,7.821l6.541-6.541c0.293-0.293,0.293-0.768,0-1.061  c-0.293-0.293-0.768-0.293-1.061,0L7.821,6.76L1.28,0.22c-0.293-0.293-0.768-0.293-1.061,0c-0.293,0.293-0.293,0.768,0,1.061  l6.541,6.541L0.22,14.362c-0.293,0.293-0.293,0.768,0,1.061c0.147,0.146,0.338,0.22,0.53,0.22s0.384-0.073,0.53-0.22l6.541-6.541  l6.541,6.541c0.147,0.146,0.338,0.22,0.53,0.22c0.192,0,0.384-0.073,0.53-0.22c0.293-0.293,0.293-0.768,0-1.061L8.882,7.821z"/>
  </symbol>
  <symbol fill="currentColor" id="eiffeltower" viewBox="0 0 62.255 62.255">
    <path d="M38.763,52.192v-0.044c0.051-0.025,0.083-0.077,0.083-0.135v-2.758c0-0.09-0.07-0.161-0.154-0.161
  		h-1.529l-2.51-8.79c0.66-0.528,1.091-1.334,1.091-2.248c0-1.222-0.76-2.263-1.832-2.686c-0.963-6.688-1.443-17.551-1.637-23.055
  		c0.515-0.502,0.852-1.329,0.852-2.268v-3.45c0-1.278-0.627-2.344-1.475-2.666V0.399C31.655,0.18,31.41,0,31.115,0
  		c-0.303,0-0.546,0.18-0.546,0.399v3.552c-0.829,0.34-1.436,1.392-1.436,2.652v3.451c0,0.936,0.337,1.761,0.848,2.263
  		c-0.193,5.498-0.671,16.341-1.628,23.029c-1.121,0.398-1.929,1.458-1.929,2.715c0,0.945,0.462,1.777,1.163,2.305l-2.489,8.732
  		h-1.511c-0.09,0-0.161,0.07-0.161,0.162v2.757c0,0.052,0.025,0.098,0.064,0.122v0.056l-5.608,10.06h5.605
  		c0,0,0.573-7.387,7.638-7.471c7.072,0.084,7.644,7.471,7.644,7.471h5.605L38.763,52.192z"/>
  </symbol>
  <symbol fill="currentColor" id="NY" viewBox="0 0 19.675 19.675">
    <path d="M11.347,19.025l-0.021-0.086l-0.057-1.123c0,0,0.036-0.217,0.153-0.376
  		c0.116-0.162-0.044-3.167-0.044-3.167s0.113-0.311,0.2-0.369c0.088-0.061-0.171-2-0.128-2.029c0.044-0.027,0.328-0.185,0.49-0.271
  		c0.16-0.088,0.465-0.981,0.465-0.981s0.1-0.123,0.244-0.225c0.147-0.103,0.279-0.409,0.336-0.554
  		c0.06-0.148-0.057-0.308-0.057-0.308l0.219-0.498l-0.085-0.131l-0.879-0.409l-0.365,0.54c0,0-0.336-0.191-0.512-0.395
  		c-0.177-0.205-0.132-0.702-0.323-1.024c-0.085-0.144-0.266-0.244-0.441-0.311c-0.062-0.179-0.159-0.452-0.187-0.566
  		c-0.044-0.175-0.03-0.513,0.015-0.615c0.027-0.067,0-0.247-0.021-0.364c0.02-0.046,0.041-0.041,0.049-0.093
  		c0.282-0.031,0.839-0.17,0.817-0.176c-0.024-0.006-0.556-0.07-0.831-0.094c-0.009-0.049,0-0.036-0.021-0.078l0.746-0.467
  		l-0.89,0.238c-0.037-0.037-0.024-0.067-0.071-0.098c0.074-0.101,0.407-0.772,0.373-0.744c-0.127,0.103-0.581,0.577-0.645,0.63
  		C9.817,4.862,9.757,4.85,9.693,4.842L9.535,3.825l-0.12,1.016C9.303,4.854,9.318,4.847,9.224,4.894l0,0c0,0-0.673-0.636-0.71-0.665
  		c-0.036-0.03,0.407,0.772,0.407,0.772l-0.066,0.11L8.306,4.967c-0.009,0.04-0.019,0.082-0.028,0.128l0.468,0.207L8.731,5.389
  		c0,0-0.23-0.013-0.394,0.002C8.355,5.46,8.376,5.521,8.402,5.58c0.126,0.016,0.323,0.052,0.323,0.052s0.011,0.017,0.027,0.044
  		c0.025,0.04,0.063,0.102,0.089,0.147c0.015,0.287,0.077,0.4,0.077,0.4L8.876,6.646c0,0-0.122-0.028-0.195-0.103
  		C8.608,6.471,8.417,6.253,8.402,6.05C8.39,5.875,8.348,5.654,8.29,5.58C8.272,5.544,8.183,5.276,8.17,5.156
  		C8.161,5.098,8.155,5.041,8.153,4.989c0-0.022-0.001-0.044-0.001-0.065L8.149,4.923C8.148,4.896,8.148,4.87,8.148,4.842
  		C8.132,4.388,7.811,3.627,7.811,3.466s-0.015-0.511,0-0.775c0.013-0.264-0.205-0.498-0.205-0.498s0.028-0.073,0.103-0.16
  		c0.029-0.035,0.037-0.077,0.037-0.115c0.19-0.04,0.318-0.111,0.318-0.194c0-0.025-0.014-0.051-0.039-0.073V1.475
  		C8.05,1.453,8.064,1.427,8.064,1.4c0-0.102-0.197-0.185-0.465-0.214c-0.004-0.056,0-0.144,0.04-0.172
  		C7.698,0.975,7.81,0.892,7.801,0.742C7.79,0.591,7.796,0.502,7.83,0.448c0.033-0.053,0.116-0.13,0.116-0.13L7.634,0.454L7.924,0
  		c0,0-0.546,0.17-0.728,0.331C7.065,0.448,6.982,0.588,7.079,0.882c0.04,0.123,0.087,0.234,0.156,0.301
  		c-0.28,0.025-0.488,0.113-0.488,0.216c0,0.024,0.013,0.049,0.035,0.07v0.187C6.76,1.678,6.748,1.702,6.748,1.725
  		c0,0.073,0.101,0.136,0.255,0.178c-0.009,0.12,0.091,0.231,0.091,0.231c0,0.001,0,0.001,0,0.001C7.091,2.138,7.02,2.241,7.005,2.5
  		C6.991,2.764,7.151,2.956,7.151,2.956s0.015,0.087,0.015,0.248s0.146,0.454,0.146,0.454s0.043,0.247,0.015,0.7
  		c-0.03,0.454,0.204,1.259,0.204,1.259s-0.19,0.336-0.35,0.716C7.02,6.713,7.503,7.24,7.503,7.24S7.81,8.105,7.837,8.454
  		c0.03,0.352,0.145,3.083,0.072,3.668c-0.074,0.584-0.146,2.449-0.131,2.683c0.013,0.233,0.177,1.217,0.104,1.991
  		c-0.073,0.775-0.06,2.054-0.06,2.054l-0.005,0.176H6.42v0.649h6.834v-0.649L11.347,19.025L11.347,19.025z M12.224,8.664
  		l0.738,0.351l-0.154,0.351c0,0-0.178-0.019-0.275,0.059c-0.096,0.077-0.253,0.349-0.253,0.427c0,0.079,0.039,0.254,0.039,0.254
  		L11.754,11.1l-0.117-0.097l-0.096-1.362L12.224,8.664z M9.677,6.036C9.672,6.074,9.653,6.093,9.609,6.093
  		c-0.044,0-0.092,0.016-0.092,0.016l0.061,0.092v0.052c0,0-0.013,0.007-0.057,0.007c-0.045,0-0.059,0.034-0.068,0.059
  		C9.442,6.342,9.511,6.324,9.551,6.324c0.038,0,0.054,0.054,0.054,0.054s0,0.106,0,0.151c0,0.043-0.031,0.049-0.083,0.043
  		C9.469,6.568,9.307,6.557,9.252,6.46C9.199,6.361,9.19,6.122,9.214,6.08C9.24,6.037,9.429,5.953,9.463,5.944
  		c0.033-0.01,0.044-0.107,0.033-0.157c-0.01-0.049-0.17-0.083-0.17-0.083C9.244,5.625,9.609,5.46,9.658,5.471
  		C9.706,5.479,9.92,5.68,9.92,5.68S9.716,5.719,9.686,5.753C9.658,5.787,9.682,5.997,9.677,6.036z M9.868,6.26
  		C9.823,6.275,9.712,5.986,9.779,5.986c0,0,0.181,0.005,0.185,0.05C9.969,6.08,9.913,6.245,9.868,6.26z M9.775,5.388
  		c-0.04-0.006-0.187-0.059-0.268-0.012C9.424,5.427,9.181,5.606,9.094,5.67C9.004,5.734,8.98,5.499,8.98,5.499
  		c0.098-0.165,0.356-0.296,0.462-0.306c0.109-0.011,0.264,0.01,0.318,0.039c0.053,0.028,0.18-0.006,0.277,0.074
  		c0.098,0.075,0.153,0.252,0.138,0.297C10.16,5.646,9.814,5.392,9.775,5.388z"/>
  </symbol>
  <symbol fill="currentColor" id="pingpong" viewBox="0 0 210.517 210.517">
    <path d="M113.668,24.071c0,10.098-8.216,18.314-18.313,18.314c-10.098,0-18.313-8.216-18.313-18.314
    	c0-10.099,8.216-18.314,18.313-18.314C105.452,5.757,113.668,13.973,113.668,24.071z M205.951,117.805
    	c-9.686,25.053-33.299,41.884-58.759,41.884c-1.767,0-3.536-0.087-5.296-0.253l-12.627,32.586c-0.768,1.981-2.659,3.194-4.663,3.194
    	c-0.601,0-1.212-0.108-1.806-0.339l-9.055-3.509c-0.018,1.925-1.149,3.75-3.033,4.554l-19.778,8.437
    	c-0.64,0.273-1.306,0.402-1.96,0.402c-1.942,0-3.79-1.139-4.601-3.039l-13.731-32.191c-0.216,0.027-0.434,0.036-0.65,0.06
    	c-0.47,0.053-0.941,0.089-1.412,0.131c-0.596,0.052-1.191,0.113-1.789,0.146c-0.663,0.038-1.327,0.047-1.991,0.061
    	c-0.415,0.009-0.829,0.038-1.243,0.038c-2.289,0-4.573-0.141-6.843-0.407c-0.091-0.01-0.181-0.024-0.271-0.035
    	c-0.622-0.076-1.242-0.159-1.862-0.255c-0.254-0.039-0.507-0.083-0.76-0.126c-0.44-0.074-0.88-0.149-1.318-0.232
    	c-0.392-0.074-0.782-0.155-1.172-0.237c-0.284-0.06-0.567-0.119-0.851-0.183c-0.516-0.116-1.03-0.24-1.542-0.37
    	c-0.141-0.036-0.281-0.071-0.422-0.108c-0.633-0.165-1.264-0.34-1.891-0.525c-0.004-0.001-0.007-0.002-0.01-0.003
    	c-17.956-5.299-33.231-18.809-41.162-37.363C-8.443,97.617,5.142,60.527,35.737,47.448c7.154-3.058,14.73-4.608,22.517-4.608
    	c15.987,0,31.085,6.409,42.603,17.36c11.828-17.077,30.97-27.815,51.295-27.815c7.083,0,14.027,1.296,20.64,3.854
    	C203.827,48.238,218.702,84.829,205.951,117.805z M104.529,168.682l8.012-20.674c-0.079-0.06-0.154-0.124-0.232-0.185
    	c-0.011-0.009-0.022-0.018-0.034-0.027c-0.672-0.516-1.332-1.046-1.98-1.59c-0.033-0.028-0.065-0.057-0.098-0.085
    	c-2.986,4.105-6.517,7.84-10.558,11.096L104.529,168.682z M102.19,188.685l-13.294-31.166c-0.929-2.177-0.204-4.706,1.735-6.061
    	c7.663-5.354,13.569-12.854,17.185-21.67L45.23,156.442c5.891,2.322,12.095,3.526,18.326,3.526c3.087,0,6.178-0.301,9.186-0.895
    	c0.324-0.064,0.649-0.095,0.97-0.095c1.971,0,3.8,1.169,4.597,3.038l13.302,31.182L102.19,188.685z M166.903,145.512l-47.458-18.423
    	c-1.025,3.57-2.362,7.027-3.996,10.334c1.841,1.665,3.804,3.198,5.897,4.564c1.979,1.291,2.784,3.791,1.931,5.994l-12.25,31.609
    	l10.726,4.156l12.243-31.594c0.855-2.207,3.145-3.513,5.474-3.127c2.526,0.416,5.111,0.626,7.684,0.626
    	C153.915,149.651,160.607,148.237,166.903,145.512z"/>
  </symbol>
  <symbol fill="currentColor" id="boxe" viewBox="0 0 440.002 440.002">
    <path d="M177.409,321.722c-0.03,0.029-0.067,0.063-0.104,0.096l4.118,23.45l23.446,4.11c0.035-0.029,0.064-0.063,0.099-0.103
      l-4.476-23.077L177.409,321.722z"/>
    <path d="M385.05,141.638c-91.001-90.996-143.231-44.24-151.66-12.499c-4.029,15.169-3.643,21.474-3.643,21.474
      c-13.679-6.735-48.593-16.202-78.575,93.825l-64.485,79.39c14.452,24.943,31.029,46.754,50.223,65.952
      c19.196,19.189,41.013,35.77,65.949,50.222l79.388-64.483c25.762-11.971,67.64-16.711,94.414-43.492
      C431.551,277.132,467.419,224.005,385.05,141.638z M256.426,336.993c-5.412,5.409-14.182,5.409-19.592,0
      c-1.28-1.278-2.25-2.752-2.921-4.323l-16.925-3.28l3.277,16.923c1.569,0.682,3.044,1.65,4.323,2.929
      c5.412,5.409,5.412,14.18,0,19.592c-5.411,5.411-14.18,5.411-19.591,0c-1.22-1.22-2.147-2.616-2.817-4.103l-17.89-3.133
      l3.138,17.888c1.485,0.666,2.882,1.592,4.101,2.817c5.41,5.409,5.41,14.181-0.001,19.592c-5.411,5.411-14.181,5.409-19.591,0
      c-5.411-5.411-5.411-14.183,0-19.592c0.045-0.05,0.097-0.084,0.143-0.132l-4.116-23.445l-23.448-4.12
      c-0.043,0.049-0.083,0.098-0.128,0.146c-5.412,5.411-14.181,5.411-19.593-0.002c-5.41-5.409-5.411-14.181,0-19.59
      c5.412-5.411,14.181-5.411,19.593,0c1.22,1.216,2.149,2.614,2.816,4.098l17.895,3.142l-3.144-17.891
      c-1.483-0.667-2.878-1.601-4.098-2.818c-5.409-5.41-5.412-14.181,0-19.592c5.411-5.41,14.181-5.41,19.591,0
      c1.283,1.281,2.25,2.749,2.924,4.326l16.926,3.275l-3.282-16.921c-1.569-0.679-3.041-1.646-4.324-2.929
      c-5.409-5.412-5.408-14.182,0-19.592c5.41-5.412,14.181-5.41,19.591,0c5.4,5.401,5.409,14.144,0.034,19.558l4.473,23.078
      l23.081,4.477c5.414-5.38,14.158-5.36,19.555,0.03C261.835,322.811,261.836,331.581,256.426,336.993z"/>
    <path d="M114.849,266.931l-5.869-7.562l-22.614,6.435c-0.013,0.05-0.033,0.09-0.046,0.14l14.067,18.791L114.849,266.931z"/>
    <path d="M62.978,292.715c1.64,0.537,3.097,1.36,4.368,2.387l17.376-5.287l-10.885-14.54c-1.624,0.072-3.289-0.121-4.929-0.662
      c-7.271-2.383-11.234-10.205-8.852-17.478c2.383-7.273,10.207-11.237,17.479-8.852c1.719,0.563,3.252,1.444,4.561,2.536
      l16.579-4.723l-10.571-13.613c-1.703,0.108-3.457-0.087-5.177-0.653c-7.271-2.382-11.233-10.206-8.851-17.479
      c2.383-7.271,10.207-11.231,17.478-8.852c7.25,2.372,11.211,10.169,8.862,17.427l14.42,18.576l22.61-6.443
      c0.706-2.123,1.884-3.95,3.369-5.432c12.748-41.831,26.184-64.664,26.184-64.664s-13.867-37.052-56.108-20.553
      c50.016-23.697,13.685-61.604,13.685-61.604s43.011,32.745,84.565,50.609c2.049-0.306,4.12-0.476,6.216-0.476
      c0.892,0,1.78,0.028,2.668,0.086c0.496-2.266,1.096-4.756,1.82-7.485c5.794-21.813,25.602-45.086,56.508-50.058
      c-10.275-23.054-34.829-47.343-86.113-64.145C79.545-24.931,48.354,31.076,24.18,104.837
      c-11.788,35.991,2.898,75.493,3.864,103.884L6.385,308.675c24.16,15.718,48.8,27.687,74.597,36.139
      c0.871,0.289,1.746,0.557,2.62,0.835c-3.091-4.801-6.103-9.729-9.041-14.8l-4.843-8.358L82.47,306.79l-10.591,3.22
      c-0.021,0.058-0.029,0.122-0.05,0.182c-2.383,7.273-10.207,11.234-17.48,8.85c-7.27-2.382-11.233-10.204-8.85-17.476
      C47.88,294.292,55.707,290.328,62.978,292.715z"/>
  </symbol>
  <symbol fill="currentColor" id="ski" viewBox="0 0 293.582 293.582">
    <path d="m37.38,194.292l101.301-41.099-1.128,2.955c-1.718,3.548-2.055,7.758-0.576,11.747l10.887,29.378 24.707-19.662-3.327-8.978 9.873,3.77 20.516-16.326c-6.492-4.044-10.298-10.917-10.771-15.431l-5.322-50.83 17.256,49.58v0.001c1.378,3.958 4.643,6.955 8.694,7.997l48.369,12.432c0.001,0.001 0.002,0.001 0.003,0.001 6.643,1.704 13.487-2.273 15.215-8.995 1.719-6.689-2.31-13.5-8.995-15.218l-41.877-10.764-15.627-44.899 22.64,33.805 8.191-21.452c3.672-9.616-1.147-20.388-10.763-24.06l-31.05-11.855c-1.559-0.595-5.202-2.4-10.874-1.774l-53.05,7.553c-4.039,0.575-7.544,3.085-9.388,6.724-1.845,3.64-1.797,7.949 0.127,11.547l25.393,47.473-117.943,47.846-.125-.309c-2.076-5.116-7.904-7.58-13.026-5.507-5.117,2.076-7.583,7.908-5.507,13.026l.125,.308-5.085,2.063c-5.117,2.076-7.583,7.908-5.507,13.026 2.075,5.112 7.9,7.584 13.026,5.507l5.085-2.063 .125,.309c2.075,5.112 7.9,7.584 13.026,5.507 5.117-2.076 7.583-7.908 5.507-13.026l-.125-.307zm128.264-111.712l-5.72,14.981-7.042-13.164 12.762-1.817z"/>
    <circle cx="228.983" cy="28.938" r="27.59"/>
    <path d="m291.407,111.16c-3.44-4.323-9.733-5.036-14.052-1.599l-16.215,12.904 5.93,1.524c5.346,1.374 9.955,4.451 13.271,8.756l9.467-7.534c4.322-3.439 5.037-9.73 1.599-14.051z"/>
    <path d="m120.393,260.03l116.97-93.084-24.278-6.24-105.146,83.675-.208-.261c-3.438-4.321-9.729-5.038-14.051-1.598-4.322,3.438-5.037,9.729-1.598,14.051l.208,.261-4.294,3.417c-4.321,3.44-5.037,9.73-1.599,14.052 3.439,4.321 9.731,5.036 14.052,1.599l4.295-3.418 .207,.26c3.44,4.323 9.733,5.035 14.051,1.598 4.322-3.439 5.037-9.729 1.598-14.051l-.207-.261z"/>
    <path d="m256.992,243.432h-5.599c-5.523,0-10,4.478-10,10 0,5.522 4.477,10 10,10h5.599c2.427,0 4.401,1.975 4.401,4.401 0,2.428-1.975,4.402-4.401,4.402h-31.819l4.057-54.506c0.16-2.151-0.146-4.313-0.897-6.335l-6.285-16.924-24.702,19.657 1.723,4.641-3.98,53.467h-27.799l13.489-44.924-41.157,32.752c-3.268,10.885-3.223,10.507-3.444,12.233-5.01,0.543-8.911,4.784-8.911,9.938 0,5.522 4.478,10 10,10h119.726c13.455,0 24.401-10.947 24.401-24.402-0.001-13.453-10.947-24.4-24.402-24.4z"/>
  </symbol>
  <symbol fill="currentColor" id="bike" viewBox="0 0 612 612">
    <path d="M408,132.6c25.5,0,45.9-20.4,45.9-45.9S433.5,40.8,408,40.8s-45.9,20.4-45.9,45.9S382.5,132.6,408,132.6z M484.5,316.2
			c-71.4,0-127.5,56.1-127.5,127.5s56.1,127.5,127.5,127.5S612,515.101,612,443.7S555.9,316.2,484.5,316.2z M484.5,532.95
			c-48.45,0-89.25-40.801-89.25-89.25c0-48.451,40.8-89.25,89.25-89.25s89.25,40.799,89.25,89.25
			C573.75,492.149,532.95,532.95,484.5,532.95z M377.4,265.2h107.1v-45.9h-81.6l-48.45-84.15c-7.65-12.75-20.4-20.4-38.25-20.4
			c-12.75,0-22.95,5.1-30.6,12.75l-94.35,94.35c-7.65,7.65-12.75,17.85-12.75,30.6c0,15.3,7.65,30.6,20.4,38.25l86.7,51v127.5h45.9
			V303.45l-56.1-43.35l58.65-58.65L377.4,265.2z M127.5,316.2C56.1,316.2,0,372.3,0,443.7s56.1,127.5,127.5,127.5
			S255,515.101,255,443.7S198.9,316.2,127.5,316.2z M127.5,532.95c-48.45,0-89.25-40.801-89.25-89.25
			c0-48.451,40.8-89.25,89.25-89.25s89.25,40.799,89.25,89.25C216.75,492.149,175.95,532.95,127.5,532.95z"/>
  </symbol>
  <symbol fill="currentColor" id="swim" viewBox="0 0 497.359 497.36">
    <circle cx="386.559" cy="206.234" r="80.895"/>
    <path d="M212.304,221.333l-101.292,72.561c4.385-0.899,9.206-1.451,14.585-1.451c24.277,0,37.733,10.773,46.638,17.902
    c6.524,5.226,8.722,6.984,15.527,6.984c6.806,0,9.004-1.76,15.529-6.984c8.904-7.129,22.361-17.902,46.639-17.902
    c24.276,0,37.733,10.773,46.639,17.902c6.525,5.226,8.725,6.984,15.531,6.984c6.805,0,9.004-1.76,15.529-6.984
    c2.967-2.375,6.457-5.154,10.67-7.806l-70.828-119.685l-96.774-72.232l-110.56,31.361L46.23,205.774l114.974-22.583
    L212.304,221.333z"/>
    <path d="M450.717,329.981c-6.525,5.225-8.727,6.984-15.535,6.984s-9.008-1.761-15.535-6.984
    c-8.904-7.129-22.363-17.902-46.641-17.902s-37.734,10.773-46.639,17.902c-6.523,5.225-8.723,6.984-15.529,6.984
    c-6.809,0-9.004-1.761-15.531-6.984c-8.904-7.129-22.361-17.902-46.639-17.902c-24.277,0-37.733,10.773-46.638,17.902
    c-6.524,5.225-8.722,6.984-15.529,6.984c-6.806,0-9.003-1.761-15.527-6.984c-8.905-7.129-22.361-17.902-46.638-17.902
    c-24.277,0-37.734,10.773-46.639,17.902c-6.525,5.225-8.723,6.984-15.53,6.984c-6.806,0-9.004-1.761-15.529-6.984
    C37.734,322.852,24.277,312.079,0,312.079v49.773c6.806,0,9.004,1.76,15.529,6.982c8.904,7.131,22.361,17.903,46.638,17.903
    c24.278,0,37.734-10.772,46.639-17.902c6.524-5.225,8.723-6.983,15.53-6.983c6.806,0,9.004,1.76,15.528,6.982
    c8.904,7.131,22.361,17.903,46.638,17.903c24.277,0,37.733-10.772,46.638-17.903c6.525-5.224,8.723-6.982,15.529-6.982
    c6.808,0,9.005,1.76,15.53,6.983c8.904,7.13,22.361,17.902,46.641,17.902c24.275,0,37.732-10.772,46.637-17.903
    c6.525-5.224,8.723-6.982,15.531-6.982s9.008,1.761,15.533,6.983c8.904,7.13,22.363,17.902,46.643,17.902
    s37.736-10.772,46.641-17.902c6.527-5.224,8.727-6.983,15.535-6.983v-49.773C473.08,312.078,459.623,322.852,450.717,329.981z"/>
  </symbol>
  <symbol fill="currentColor" id="kayak" viewBox="0 0 303.314 303.313">
    <path d="M24.558,263.998c8.713-6.962,21.122-25.034,26.718-33.545c1.648-2.509,3.207-6.978,3.529-9.953l1.473-13.416
      l59.626-71.308v27.353l20.53-13.703c9.188-5.527,22.384-5.289,30.801-0.247l20.961,13.98v-26.444l58.839,70.368l1.468,13.416
      c0.325,2.976,1.879,7.444,3.534,9.953c5.596,8.5,18.001,26.583,26.715,33.545c2.341,1.874,7.089,2.275,9.887,1.188
      c4.561-1.768,10.964-5.5,14.209-13.01c1.183-2.747-0.025-7.023-1.985-9.282l-25.294-29.301c-1.96-2.274-5.819-4.966-8.617-6.012
      l-12.984-4.885l-65.771-78.658v-7.122c0-12.885-10.445-23.333-23.333-23.333h-25.626c-12.891,0-23.333,10.448-23.333,23.333v6.183
      l-66.557,79.592l-12.984,4.885c-2.803,1.052-6.663,3.743-8.623,6.008L2.448,242.889c-1.96,2.265-3.161,6.535-1.98,9.288
      c3.24,7.5,9.646,11.232,14.211,13.01C17.471,266.263,22.216,265.872,24.558,263.998z"/>
    <path d="M162.45,157.193c-5.753-3.448-15.076-3.448-20.832,0l-71.084,47.418c-5.751,3.447-9.448,11.613-7.279,17.955
      c7.083,20.627,28.657,56.473,88.778,57.082c60.328,0.604,81.834-36.125,88.836-57.062c2.133-6.362-1.594-14.528-7.348-17.971
      L162.45,157.193z"/>
    <circle cx="152.048" cy="56.286" r="32.629"/>
  </symbol>
  <symbol fill="currentColor" id="arrow" viewBox="0 0 459.428 459.428">
    <path d="M349.792,157.708l-19.856,19.856c9.316,17.136,14.62,36.652,14.62,57.459c0,66.232-53.924,120.156-120.156,120.156
      s-120.156-53.924-120.156-120.156c0-66.232,53.924-120.156,120.156-120.156c20.808,0,40.324,5.304,57.459,14.62l19.856-19.856
      c-22.508-13.94-48.96-21.964-77.316-21.964c-81.26,0-147.356,66.096-147.356,147.356S143.14,382.38,224.4,382.38
      s147.356-66.096,147.356-147.355C371.756,206.669,363.731,180.217,349.792,157.708z M294.644,212.925l-23.868,23.801
      c-0.884,24.887-21.283,44.742-46.375,44.742c-25.636,0-46.444-20.807-46.444-46.443c0-25.092,19.856-45.492,44.744-46.375
      l23.868-23.8c-7.004-2.244-14.416-3.468-22.167-3.468c-40.596,0-73.644,33.048-73.644,73.644s33.048,73.645,73.644,73.645
      s73.644-33.049,73.644-73.645C298.044,227.34,296.888,219.861,294.644,212.925z M416.771,119.629l-19.855,19.856
      c15.708,28.288,24.684,60.86,24.684,95.54c0,108.732-88.468,197.201-197.2,197.201S27.2,343.757,27.2,235.024
      c0-108.732,88.468-197.2,197.2-197.2c34.68,0,67.251,8.976,95.54,24.684l19.856-19.856C306.067,22.321,266.56,10.625,224.4,10.625
      C100.64,10.625,0,111.265,0,235.024s100.64,224.4,224.4,224.4s224.4-100.641,224.4-224.4
      C448.8,192.865,437.104,153.357,416.771,119.629z M387.301,120.207l-25.963-2.883L233.431,245.226
      c-5.311,5.311-13.92,5.311-19.231,0c-5.311-5.312-5.311-13.92,0-19.231L342.101,98.093l-2.883-25.962l72.128-72.128l9.615,38.468
      l38.467,9.615L387.301,120.207z"/>
  </symbol>
  <symbol fill="currentColor" id="fencing" viewBox="0 0 496.47 496.47">
    <path d="M489.075,444.727l-56.487-56.489l-35.698,35.698l56.489,56.488c4.93,4.93,11.391,7.395,17.848,7.395
  		c6.459,0,12.917-2.465,17.849-7.395C498.935,470.561,498.935,454.587,489.075,444.727z"/>
  	<path d="M210.747,218.76l18.688-16.352L29.468,10.315c-2.284-2.186-5.901-2.219-8.218-0.034
  		c-2.384,2.269-2.482,6.032-0.229,8.415L210.747,218.76z"/>
  	<path d="M285.757,256.496l-18.704,21.646l32.953,34.742c3.059-4.027,6.196-8.004,9.845-11.651
  		c3.731-3.732,7.739-7.05,11.85-10.189L285.757,256.496z"/>
  	<path d="M439.457,324.372c-0.705-5.225-3.795-9.828-8.382-12.439c-12.408-7.084-26.278-10.635-40.149-10.635
  		c-20.727,0-41.449,7.905-57.261,23.733c-26.411,26.409-30.766,66.495-13.099,97.409c2.613,4.586,7.231,7.676,12.457,8.365
  		c0.756,0.1,1.514,0.148,2.27,0.148c4.438,0,8.742-1.759,11.932-4.945l87.418-87.421
  		C438.372,334.858,440.148,329.598,439.457,324.372z"/>
  	<path d="M7.395,444.727c-9.86,9.859-9.86,25.834,0,35.697c4.932,4.93,11.391,7.395,17.849,7.395
  		c6.459,0,12.918-2.465,17.85-7.395l56.486-56.488l-35.697-35.698L7.395,444.727z"/>
  	<path d="M475.418,10.479c-2.269-2.367-6.048-2.449-8.414-0.164L174.77,291.044
  		c4.107,3.139,8.118,6.456,11.833,10.189c3.648,3.647,6.789,7.624,9.861,11.651L475.449,18.696
  		C477.619,16.413,477.636,12.781,475.418,10.479z"/>
  	<path d="M105.546,301.297c-13.871,0-27.742,3.551-40.15,10.635c-4.586,2.611-7.677,7.215-8.383,12.439
  		c-0.69,5.227,1.086,10.486,4.817,14.216l87.417,87.421c3.189,3.186,7.493,4.945,11.933,4.945c0.755,0,1.511-0.049,2.268-0.148
  		c5.227-0.689,9.844-3.779,12.459-8.365c17.667-30.914,13.311-71-13.1-97.409C146.996,309.203,126.271,301.297,105.546,301.297z"/>
  </symbol>
  <symbol fill="currentColor" id="billard" viewBox="0 0 289.739 289.739">
    <path d="M144.869,0C65.191,0,0,65.191,0,144.869s65.191,144.869,144.869,144.869c79.678,0,144.869-65.191,144.869-144.869
    S224.547,0,144.869,0z M229.98,42.857c-24.145,10.262-53.722,15.694-85.111,15.694s-60.966-5.433-85.111-15.694
    c22.938-19.316,52.515-30.785,85.111-30.785S207.042,23.541,229.98,42.857z M50.101,51.912
    c25.956,12.072,59.759,18.712,94.769,18.712c35.01,0,68.813-6.64,94.769-18.712c23.541,24.145,38.028,56.74,38.028,92.958
    c0,35.01-13.883,67.002-35.614,90.543c-26.559-12.676-60.362-19.316-95.976-19.316c-36.217,0-70.624,7.244-97.183,19.919
    c-22.334-23.541-36.217-56.137-36.217-91.147C12.072,108.652,26.559,76.056,50.101,51.912z M57.948,245.071
    c24.145-10.865,54.93-16.901,88.129-16.901c31.992,0,62.777,6.036,86.922,16.298c-23.541,20.523-54.326,33.199-87.525,33.199
    C111.67,277.666,80.885,265.594,57.948,245.071z"/>
  <path d="M144.869,202.213c31.388,0,57.344-25.956,57.344-57.344s-25.956-57.344-57.344-57.344
    c-31.388,0-57.344,25.956-57.344,57.344S113.481,202.213,144.869,202.213z M144.869,99.598c24.749,0,45.272,20.523,45.272,45.272
    s-20.523,45.272-45.272,45.272s-45.272-20.523-45.272-45.272S120.121,99.598,144.869,99.598z"/>
  <path d="M141.851,155.131c7.244,0,12.676-3.018,16.901-7.847h0.604c-1.207,8.451-4.829,14.487-9.658,19.316
    c-4.225,3.622-9.658,6.036-15.091,6.64c-3.018,0.604-5.433,0.604-7.847,0.604v7.847c2.414,0,5.433,0,9.054-0.604
    c7.847-0.604,15.091-4.225,20.523-9.658c7.243-6.64,12.072-18.109,12.072-33.803c0-18.109-9.054-30.181-23.541-30.181
    c-14.487,0-24.145,12.072-24.145,25.352C120.724,145.473,129.175,155.131,141.851,155.131z M144.266,115.292
    c10.262,0,14.487,9.658,14.487,21.73c0,1.811-0.604,2.414-0.604,3.622c-2.414,4.225-7.847,7.244-13.883,7.244
    c-8.451,0-13.883-6.036-13.883-15.091C130.382,122.535,136.419,115.292,144.266,115.292z"/>
  </symbol>
  <symbol fill="currentColor" id="rugby" viewBox="0 0 436.874 436.874">
    <path d="M424.674,22.594c-1.597-4.918-5.449-8.778-10.364-10.383c-1.527-0.499-37.994-12.21-90.603-12.21
    c-19.333,0-41.445,1.615-65.099,6.24c50.196,65.4,106.67,121.871,172.049,172.045c3.052-15.641,4.998-31.65,5.797-47.949
    C439.466,68.965,425.28,24.458,424.674,22.594z"/>
    <path d="M231.55,12.755c-44.641,12.812-92.826,37.229-137.193,81.594c-32.078,32.079-56.383,68.872-72.239,109.358
    c-3.561,9.092-6.682,18.376-9.391,27.819c74.029,55.504,137.066,118.537,192.601,192.59c44.64-12.814,92.825-37.233,137.194-81.605
    c32.022-32.02,56.299-68.74,72.156-109.141c3.595-9.157,6.743-18.509,9.473-28.023C350.119,149.843,287.082,86.809,231.55,12.755z
     M315.576,210.723c-1.202,0.566-2.264-0.067-3.309-0.608c-1.76-0.91-3.482-1.895-5.182-2.912c-4.08-2.444-8.039-5.094-11.893-7.878
    c-8.232-5.946-16.032-12.462-23.467-19.376c-7.968,9.791-16.213,19.343-24.777,28.618c-2.199,2.382-4.417,4.748-6.65,7.098
    c-1.083,1.14-2.17,2.275-3.261,3.407c-0.547,0.568-1.095,1.136-1.645,1.702c-0.422,0.435-0.113,0.461,0.24,0.851
    c0.342,0.377,0.682,0.755,1.022,1.134c4.179,4.659,8.187,9.471,11.989,14.442c3.605,4.713,7.039,9.562,10.186,14.595
    c1.402,2.242,2.754,4.519,3.993,6.856c0.653,1.232,1.623,2.63,0.854,4.041c-0.978,1.796-2.811,1.27-4.249,0.531
    c-2.203-1.132-4.348-2.379-6.459-3.672c-5.025-3.079-9.865-6.451-14.568-10c-5.05-3.811-9.943-7.83-14.671-12.033
    c-0.593-0.527-1.183-1.057-1.771-1.588c-0.296-0.268-0.591-0.535-0.886-0.804c-0.283,0.275-0.566,0.551-0.849,0.825
    c-1.224,1.189-2.451,2.373-3.683,3.552c-2.346,2.247-4.708,4.477-7.085,6.69c-9.261,8.618-18.782,16.959-28.582,24.96
    c-0.274,0.225-0.549,0.448-0.824,0.672c8.494,9.142,16.436,18.841,23.352,29.236c2.628,3.95,5.202,8.015,7.271,12.292
    c0.931,1.924-0.793,4.202-2.939,3.508c-1.46-0.474-2.872-1.436-4.195-2.186c-10.352-5.865-19.933-13.12-28.99-20.808
    c-2.425-2.058-4.804-4.171-7.148-6.321c-1.152-1.057-2.297-2.123-3.434-3.197c-1.243,0.923-2.489,1.843-3.744,2.75
    c-4.586,3.313-9.234,6.547-14.015,9.573c-1.038,0.657-2.08,1.309-3.14,1.93c-1.763,1.032-4.095,0.334-4.96-1.531
    c-0.684-1.475-0.122-2.786,0.64-4.045c1.053-1.741,2.151-3.457,3.27-5.158c3.271-4.976,6.717-9.838,10.264-14.62
    c0.358-0.484,0.064-0.502-0.303-0.891c-0.269-0.285-0.538-0.57-0.806-0.855c-0.535-0.57-1.067-1.141-1.598-1.715
    c-1.136-1.229-2.262-2.466-3.375-3.715c-2.126-2.385-4.205-4.813-6.236-7.278c-7.054-8.561-13.808-17.615-19.064-27.412
    c-0.674-1.256-1.62-2.63-0.937-4.093c0.901-1.933,2.902-1.65,4.458-0.849c4.357,2.248,8.518,4.905,12.568,7.66
    c9.962,6.776,19.28,14.491,28.08,22.711c7.954-9.781,16.247-19.286,24.817-28.53c2.202-2.375,4.422-4.733,6.657-7.076
    c1.085-1.137,2.172-2.27,3.264-3.398c0.548-0.566,1.096-1.132,1.646-1.697c0.428-0.439,0.095-0.48-0.262-0.871
    c-0.357-0.393-0.713-0.785-1.068-1.179c-4.266-4.731-8.352-9.625-12.231-14.679c-3.494-4.551-6.824-9.23-9.89-14.081
    c-1.292-2.044-2.54-4.117-3.705-6.236c-0.628-1.144-1.75-2.671-1.541-4.058c0.326-2.155,2.572-2.651,4.276-1.793
    c1.929,0.974,3.804,2.055,5.655,3.168c4.702,2.827,9.234,5.934,13.642,9.197c4.987,3.695,9.826,7.596,14.506,11.673
    c1.189,1.035,2.365,2.083,3.535,3.14c0.296,0.268,0.591,0.535,0.885,0.804c0.392,0.356,0.433,0.69,0.874,0.264
    c0.66-0.64,1.321-1.278,1.983-1.916c2.349-2.26,4.713-4.504,7.093-6.73c9.258-8.661,18.761-17.071,28.577-25.096
    c1.042-0.853,2.083-1.706,3.127-2.556c-8.416-8.998-16.309-18.54-23.204-28.762c-2.666-3.951-5.246-8.008-7.407-12.261
    c-0.755-1.486-0.767-3.338,0.976-4.167c1.58-0.752,3.221,0.441,4.567,1.176c9.839,5.362,18.943,12.168,27.553,19.307
    c2.437,2.02,4.836,4.086,7.194,6.199c1.137,1.019,2.265,2.047,3.385,3.084c0.565,0.524,1.129,1.051,1.691,1.578
    c0.282,0.266,0.563,0.531,0.844,0.797c0.587,0.557,0.551,0.542,1.202,0.063c4.767-3.51,9.616-6.914,14.579-10.142
    c1.64-1.066,3.292-2.113,4.97-3.118c1.122-0.672,2.261-1.199,3.594-0.66c1.892,0.766,2.483,3.014,1.488,4.715
    c-0.705,1.206-1.443,2.393-2.189,3.572c-3.037,4.801-6.272,9.48-9.598,14.084c-0.415,0.575-0.833,1.147-1.251,1.719
    c-0.215,0.294-0.431,0.587-0.647,0.88c-0.305,0.415-0.568,0.454-0.17,0.875c1.147,1.215,2.286,2.439,3.414,3.673
    c2.115,2.314,4.192,4.662,6.217,7.056c5.466,6.45,10.633,13.164,15.317,20.205c2.085,3.134,4.079,6.337,5.888,9.638
    C316.265,206.399,318.33,209.427,315.576,210.723C314.89,211.046,316.807,210.143,315.576,210.723z"/>
    <path d="M6.22,258.59c-3.073,15.754-5.027,31.882-5.815,48.303c-2.951,61.43,11.203,105.569,11.807,107.418
    c1.667,5.101,5.703,8.936,10.65,10.448c3.654,1.155,39.668,12.113,90.298,12.114c0.004,0,0.006,0,0.01,0
    c19.333,0,41.446-1.615,65.099-6.241C128.072,365.232,71.598,308.762,6.22,258.59z"/>
  </symbol>

  <symbol fill="currentColor" id="typeSport1" viewBox="0 0 18.467 18.467">
    <path d="M17.109,5.454c-0.242-0.289-0.673-0.327-0.962-0.086l-1.894,1.591l-0.871-2.158
			c-0.031-0.081-0.078-0.149-0.132-0.209c-0.178-0.396-0.487-0.736-0.913-0.933c-0.185-0.084-0.376-0.129-0.567-0.151
			c-0.042-0.022-0.08-0.051-0.128-0.066L8.309,2.513C8.122,2.462,7.934,2.495,7.78,2.585C7.597,2.647,7.44,2.78,7.365,2.973
			L6.11,6.2C5.974,6.551,6.148,6.947,6.5,7.085c0.35,0.136,0.747-0.039,0.884-0.391l1.06-2.725l1.518,0.422
			c-0.037,0.06-0.077,0.116-0.107,0.18L7.909,8.789C7.881,8.851,7.866,8.914,7.846,8.978l-2.365,3.965l-3.958,1.324
			c-0.448,0.335-0.543,0.966-0.212,1.414c0.333,0.449,0.966,0.544,1.413,0.213l4.05-1.395c0.124-0.09,0.214-0.208,0.282-0.335
			C7.107,14.11,7.165,14.067,7.204,14l1.41-2.364l2.503,2.133l-2.678,3.018c-0.369,0.416-0.332,1.057,0.086,1.425
			c0.417,0.371,1.056,0.332,1.427-0.086l3.342-3.765c0.104-0.116,0.166-0.25,0.208-0.39c0.025-0.076,0.025-0.155,0.031-0.234
			c0-0.04,0.015-0.076,0.012-0.113c-0.009-0.276-0.121-0.544-0.347-0.735l-2.303-1.964c0.166-0.158,0.307-0.346,0.409-0.567
			l1.492-3.231L13.274,8.4c0.02,0.113,0.058,0.224,0.138,0.317c0.072,0.086,0.164,0.143,0.262,0.183
			c0.01,0.005,0.022,0.006,0.034,0.009c0.062,0.022,0.125,0.043,0.19,0.046c0.077,0.007,0.155-0.003,0.234-0.025
			c0.002-0.001,0.003-0.001,0.003-0.001c0.021-0.005,0.042-0.001,0.063-0.01c0.111-0.042,0.196-0.113,0.269-0.196l2.718-2.307
			C17.474,6.173,17.352,5.743,17.109,5.454z"/>
		<circle cx="13.671" cy="1.905" r="1.905"/>
  </symbol>

  <symbol fill="currentColor" id="typeSport4" viewBox="0 0 612 612">
    <path d="M408,132.6c25.5,0,45.9-20.4,45.9-45.9S433.5,40.8,408,40.8s-45.9,20.4-45.9,45.9S382.5,132.6,408,132.6z M484.5,316.2
      c-71.4,0-127.5,56.1-127.5,127.5s56.1,127.5,127.5,127.5S612,515.101,612,443.7S555.9,316.2,484.5,316.2z M484.5,532.95
      c-48.45,0-89.25-40.801-89.25-89.25c0-48.451,40.8-89.25,89.25-89.25s89.25,40.799,89.25,89.25
      C573.75,492.149,532.95,532.95,484.5,532.95z M377.4,265.2h107.1v-45.9h-81.6l-48.45-84.15c-7.65-12.75-20.4-20.4-38.25-20.4
      c-12.75,0-22.95,5.1-30.6,12.75l-94.35,94.35c-7.65,7.65-12.75,17.85-12.75,30.6c0,15.3,7.65,30.6,20.4,38.25l86.7,51v127.5h45.9
      V303.45l-56.1-43.35l58.65-58.65L377.4,265.2z M127.5,316.2C56.1,316.2,0,372.3,0,443.7s56.1,127.5,127.5,127.5
      S255,515.101,255,443.7S198.9,316.2,127.5,316.2z M127.5,532.95c-48.45,0-89.25-40.801-89.25-89.25
      c0-48.451,40.8-89.25,89.25-89.25s89.25,40.799,89.25,89.25C216.75,492.149,175.95,532.95,127.5,532.95z"/>
  </symbol>

  <symbol fill="currentColor" id="typeSport3" viewBox="0 0 297 297">
    <path d="M279.825,83.426c0-17.453-14.2-31.653-31.653-31.653H48.828c-17.453,0-31.652,14.2-31.652,31.653v40.701h262.649V83.426z"
  		/>
  	<path d="M227.8,37.63V10.103c0-5.579-4.523-10.102-10.102-10.102c-5.579,0-10.102,4.523-10.102,10.102V37.63H227.8z"/>
  	<path d="M89.404,37.63V10.103c0-5.579-4.523-10.102-10.102-10.102c-5.579,0-10.102,4.523-10.102,10.102V37.63H89.404z"/>
  	<path d="M65.105,138.27L0.873,282.792c-2.266,5.098,0.03,11.069,5.128,13.334c1.334,0.593,2.727,0.874,4.097,0.874
  		c3.87,0,7.564-2.237,9.237-6.002L87.214,138.27H65.105z"/>
  	<path d="M296.127,282.792L231.895,138.27h-22.109l67.879,152.727c1.673,3.764,5.366,6.002,9.237,6.002
  		c1.37,0,2.763-0.281,4.097-0.874C296.097,293.86,298.393,287.89,296.127,282.792z"/>
  </symbol>

  <symbol fill="currentColor" id="typeSport9" viewBox="0 0 401.532 401.532">
    <path d="M208.518,187.496c-12.797-4.284-26.646,2.629-30.92,15.423c-4.276,12.8,2.624,26.639,15.424,30.914
      c12.798,4.285,26.641-2.624,30.923-15.42C228.222,205.613,221.315,191.776,208.518,187.496z"/>
    <path d="M379.813,42.901c-2.13-8.16-7.599-14.477-14.512-16.771C313.039,8.792,257.685,0,200.776,0
      C143.864,0,88.5,8.792,36.231,26.13c-6.913,2.292-12.381,8.609-14.511,16.769c-2.133,8.159-0.64,17.05,3.965,23.604l8.709,12.404
      c8.976,12.785,17.952,25.567,26.929,38.347c4.881,6.949,12.475,10.175,19.864,8.637l49.635,66.987
      c-1.187,2.252-1.601,4.918-0.973,7.59l10.641,45.141c0.811,3.363,3.116,6.395,6.505,7.945l0.806,0.369l22.641,10.388v51.064
      l-10.587,12.567l-0.828,0.979c-2.108,2.509-3.314,5.786-3.165,9.322l2.208,50.729c0.314,6.739,5.74,12.281,12.608,12.55
      c7.247,0.28,13.345-5.367,13.626-12.612l1.715-44.194l13.652-13.734l13.655,13.734l1.714,44.194
      c0.28,6.741,5.684,12.31,12.55,12.609c7.245,0.315,13.375-5.303,13.69-12.547l2.201-50.729c0.136-3.275-0.9-6.642-3.182-9.349
      l-0.808-0.953l-8.39-9.958v-53.674l22.64-10.388l0.861-0.396c3.134-1.455,5.595-4.293,6.449-7.918l10.64-45.141
      c0.611-2.637,0.204-5.309-0.983-7.582l49.637-66.994c1.209,0.254,2.43,0.392,3.639,0.392c6.172,0,12.148-3.226,16.227-9.029
      l35.635-50.747C380.451,59.949,381.944,51.059,379.813,42.901z M312.92,123.645l-44.866,60.553l18.449-67.714
      C295.41,118.55,304.218,120.932,312.92,123.645z M115.031,116.484l18.448,67.714l-44.866-60.553
      C97.316,120.932,106.123,118.55,115.031,116.484z M250.611,194.662l-11.999,37.929l-19.477,7.436h-36.73l-19.476-7.436
      l-11.998-37.929c-1.326-4.143-4.948-7.025-9.09-7.55l-19.672-72.206c25.559-5.385,51.86-8.119,78.601-8.119
      c26.736,0,53.037,2.734,78.593,8.119l-19.671,72.203C255.585,187.629,251.941,190.45,250.611,194.662z"/>
  </symbol>

  <symbol fill="currentColor" id="typeSport14" viewBox="0 0 492.125 492.125">
    <path d="M191.5,77.062c9.667,0,17.834-3.333,24.5-10c6.667-6.667,10-14.5,10-23.5s-3.333-16.833-10-23.5
      s-14.833-10-24.5-10s-17.833,3.333-24.5,10s-10,14.5-10,23.5s3.333,16.833,10,23.5S181.834,77.062,191.5,77.062z"/>
    <path d="M491,147.062c-2-6-5.667-10.667-11-14l-69-44l4-35l-139,141h-50v-32l43,10c4,0.667,8-0.167,12-2.5
      s6.5-5.667,7.5-10s0.333-8.333-2-12c-2.333-3.662-5.833-5.828-10.5-6.5l-50-13v-11c0-9.333-3.667-17.167-11-23.5
      s-15.833-9.5-25.5-9.5s-18,3.167-25,9.5c-7,6.332-10.5,14.165-10.5,23.5v77H51c-14.667,0-26.833,4.167-36.5,12.5
      S0,226.729,0,240.062v78h31v-77l20-28v96l-20,29v122c0,5.333,2.667,10.333,8,15s11.167,7,17.5,7s12.167-2.167,17.5-6.5
      s8-9.5,8-15.5v-106l21-34v36l50,114c3.333,5.333,8,8.833,14,10.5s11.833,1,17.5-2s9.333-7.333,11-13s0.833-11.167-2.5-16.5
      l-43-98l21-33h116v142c0,6,1.833,11.167,5.5,15.5s8.667,6.5,15,6.5s11.333-2.167,15-6.5s5.5-9.5,5.5-15.5v-141l53-102
      c6,1.333,12,2,18,2c14,0,26.5-4.167,37.5-12.5s18.167-19.167,21.5-32.5l6,1c11.333,2,19.667-1.667,25-11
      C492.333,158.729,493,153.062,491,147.062z M429,197.062c-8.667,6.667-18.667,10-30,10c-4,0-7.667-0.333-11-1l22-41l36,7
      C443.333,182.062,437.667,190.395,429,197.062z"/>
  </symbol>

  <symbol fill="currentColor" id="typeSport2" viewBox="0 0 488.839 488.839">
    <path d="M264.32,39.487c5.529-7.328,4.64-22.871,3.853-36.582c-0.03-0.591-0.063-1.169-0.096-1.756
      C260.327,0.409,252.482,0,244.542,0c-30.425,0-59.537,5.605-86.406,15.766c19.167,9.211,48.836,25.065,81.814,48.49
      C251.202,54.573,259.688,45.634,264.32,39.487z"/>
    <path d="M388.163,178.955c-12.047,1.361-22.207,3.338-30.896,6.111c41.537,72.522,57.732,164.145,61.695,230.522
      c41.15-41.928,67.283-98.609,69.754-161.393C460.362,219.343,422.8,175.026,388.163,178.955z"/>
    <path d="M141.232,116.356c29.185-6.073,56.604-20.762,78.466-36.267c-45.608-31.412-83.648-47.714-91.215-50.817
      C81.166,54.851,43.302,95.606,21.274,144.987c28.632-11.408,59.641-17.212,90.098-22.867
      C121.225,120.29,131.41,118.399,141.232,116.356z"/>
    <path d="M310.171,123.463c2.605,2.618,5.203,5.281,7.783,7.994c9.521,9.995,18.16,20.927,26.082,32.493
      c11.537-4.356,25.119-7.445,41.377-9.283c38.307-4.333,72.369,26.012,101.604,59.42c-6.268-50.645-27.989-96.482-60.354-132.631
      c-17.666,2.129-37.361,5.736-57.435,11.726C356.06,97.115,335.089,107.801,310.171,123.463z"/>
    <path d="M278.011,249.688c10.025-33.955,21.637-58.432,44.135-74.32c-6.752-9.693-14.018-18.79-21.889-27.054
      c-3.641-3.824-7.323-7.517-11.021-11.145c-90.263,61.439-213.906,174.3-225.149,272.086
      c37.53,41.062,88.892,69.222,146.712,77.211c21.053-41.915,40.868-127.124,52.646-177.801
      C269.104,284.324,273.988,263.307,278.011,249.688z"/>
    <path d="M175.668,195.843c31.472-29.001,64.708-55.007,95.107-75.908c-10.133-8.965-20.297-17.229-30.275-24.808
      c-25.249,18.98-58.307,37.674-94.291,45.158c-10.077,2.097-20.396,4.014-30.372,5.866
      c-38.438,7.138-75.336,14.051-106.366,31.364c-6.043,21.271-9.348,43.697-9.348,66.905c0,51.917,16.238,100.02,43.839,139.604
      C61.843,313.227,123.175,244.214,175.668,195.843z"/>
    <path d="M291.829,105.975c29.078-18.538,54.147-31.356,70.412-36.211c14.606-4.362,28.934-7.539,42.502-9.856
      c-31.353-27.245-69.678-46.663-111.986-55.127c0.938,17.07,1.347,35.811-8.922,49.427c-4.879,6.466-13.133,15.334-23.873,24.955
      C270.48,87.35,281.169,96.278,291.829,105.975z"/>
    <path d="M301.45,256.609c-3.816,12.928-8.63,33.625-14.199,57.588c-16.444,70.755-32.179,134.067-50.555,174.442
      c2.609,0.083,5.217,0.199,7.846,0.199c56.963,0,109.328-19.539,150.885-52.206c-1.641-69.461-18.293-167.71-60.238-240.643
      C318.921,208.08,310.165,227.101,301.45,256.609z"/>
  </symbol>

  <symbol fill="currentColor" id="typeSport10" viewBox="0 0 459.428 459.428">
    <path d="M349.792,157.708l-19.856,19.856c9.316,17.136,14.62,36.652,14.62,57.459c0,66.232-53.924,120.156-120.156,120.156
      s-120.156-53.924-120.156-120.156c0-66.232,53.924-120.156,120.156-120.156c20.808,0,40.324,5.304,57.459,14.62l19.856-19.856
      c-22.508-13.94-48.96-21.964-77.316-21.964c-81.26,0-147.356,66.096-147.356,147.356S143.14,382.38,224.4,382.38
      s147.356-66.096,147.356-147.355C371.756,206.669,363.731,180.217,349.792,157.708z M294.644,212.925l-23.868,23.801
      c-0.884,24.887-21.283,44.742-46.375,44.742c-25.636,0-46.444-20.807-46.444-46.443c0-25.092,19.856-45.492,44.744-46.375
      l23.868-23.8c-7.004-2.244-14.416-3.468-22.167-3.468c-40.596,0-73.644,33.048-73.644,73.644s33.048,73.645,73.644,73.645
      s73.644-33.049,73.644-73.645C298.044,227.34,296.888,219.861,294.644,212.925z M416.771,119.629l-19.855,19.856
      c15.708,28.288,24.684,60.86,24.684,95.54c0,108.732-88.468,197.201-197.2,197.201S27.2,343.757,27.2,235.024
      c0-108.732,88.468-197.2,197.2-197.2c34.68,0,67.251,8.976,95.54,24.684l19.856-19.856C306.067,22.321,266.56,10.625,224.4,10.625
      C100.64,10.625,0,111.265,0,235.024s100.64,224.4,224.4,224.4s224.4-100.641,224.4-224.4
      C448.8,192.865,437.104,153.357,416.771,119.629z M387.301,120.207l-25.963-2.883L233.431,245.226
      c-5.311,5.311-13.92,5.311-19.231,0c-5.311-5.312-5.311-13.92,0-19.231L342.101,98.093l-2.883-25.962l72.128-72.128l9.615,38.468
      l38.467,9.615L387.301,120.207z"/>
  </symbol>

  <symbol fill="currentColor" id="typeSport7" viewBox="0 0 440.002 440.002">
    <path d="M177.409,321.722c-0.03,0.029-0.067,0.063-0.104,0.096l4.118,23.45l23.446,4.11c0.035-0.029,0.064-0.063,0.099-0.103
      l-4.476-23.077L177.409,321.722z"/>
    <path d="M385.05,141.638c-91.001-90.996-143.231-44.24-151.66-12.499c-4.029,15.169-3.643,21.474-3.643,21.474
      c-13.679-6.735-48.593-16.202-78.575,93.825l-64.485,79.39c14.452,24.943,31.029,46.754,50.223,65.952
      c19.196,19.189,41.013,35.77,65.949,50.222l79.388-64.483c25.762-11.971,67.64-16.711,94.414-43.492
      C431.551,277.132,467.419,224.005,385.05,141.638z M256.426,336.993c-5.412,5.409-14.182,5.409-19.592,0
      c-1.28-1.278-2.25-2.752-2.921-4.323l-16.925-3.28l3.277,16.923c1.569,0.682,3.044,1.65,4.323,2.929
      c5.412,5.409,5.412,14.18,0,19.592c-5.411,5.411-14.18,5.411-19.591,0c-1.22-1.22-2.147-2.616-2.817-4.103l-17.89-3.133
      l3.138,17.888c1.485,0.666,2.882,1.592,4.101,2.817c5.41,5.409,5.41,14.181-0.001,19.592c-5.411,5.411-14.181,5.409-19.591,0
      c-5.411-5.411-5.411-14.183,0-19.592c0.045-0.05,0.097-0.084,0.143-0.132l-4.116-23.445l-23.448-4.12
      c-0.043,0.049-0.083,0.098-0.128,0.146c-5.412,5.411-14.181,5.411-19.593-0.002c-5.41-5.409-5.411-14.181,0-19.59
      c5.412-5.411,14.181-5.411,19.593,0c1.22,1.216,2.149,2.614,2.816,4.098l17.895,3.142l-3.144-17.891
      c-1.483-0.667-2.878-1.601-4.098-2.818c-5.409-5.41-5.412-14.181,0-19.592c5.411-5.41,14.181-5.41,19.591,0
      c1.283,1.281,2.25,2.749,2.924,4.326l16.926,3.275l-3.282-16.921c-1.569-0.679-3.041-1.646-4.324-2.929
      c-5.409-5.412-5.408-14.182,0-19.592c5.41-5.412,14.181-5.41,19.591,0c5.4,5.401,5.409,14.144,0.034,19.558l4.473,23.078
      l23.081,4.477c5.414-5.38,14.158-5.36,19.555,0.03C261.835,322.811,261.836,331.581,256.426,336.993z"/>
    <path d="M114.849,266.931l-5.869-7.562l-22.614,6.435c-0.013,0.05-0.033,0.09-0.046,0.14l14.067,18.791L114.849,266.931z"/>
    <path d="M62.978,292.715c1.64,0.537,3.097,1.36,4.368,2.387l17.376-5.287l-10.885-14.54c-1.624,0.072-3.289-0.121-4.929-0.662
      c-7.271-2.383-11.234-10.205-8.852-17.478c2.383-7.273,10.207-11.237,17.479-8.852c1.719,0.563,3.252,1.444,4.561,2.536
      l16.579-4.723l-10.571-13.613c-1.703,0.108-3.457-0.087-5.177-0.653c-7.271-2.382-11.233-10.206-8.851-17.479
      c2.383-7.271,10.207-11.231,17.478-8.852c7.25,2.372,11.211,10.169,8.862,17.427l14.42,18.576l22.61-6.443
      c0.706-2.123,1.884-3.95,3.369-5.432c12.748-41.831,26.184-64.664,26.184-64.664s-13.867-37.052-56.108-20.553
      c50.016-23.697,13.685-61.604,13.685-61.604s43.011,32.745,84.565,50.609c2.049-0.306,4.12-0.476,6.216-0.476
      c0.892,0,1.78,0.028,2.668,0.086c0.496-2.266,1.096-4.756,1.82-7.485c5.794-21.813,25.602-45.086,56.508-50.058
      c-10.275-23.054-34.829-47.343-86.113-64.145C79.545-24.931,48.354,31.076,24.18,104.837
      c-11.788,35.991,2.898,75.493,3.864,103.884L6.385,308.675c24.16,15.718,48.8,27.687,74.597,36.139
      c0.871,0.289,1.746,0.557,2.62,0.835c-3.091-4.801-6.103-9.729-9.041-14.8l-4.843-8.358L82.47,306.79l-10.591,3.22
      c-0.021,0.058-0.029,0.122-0.05,0.182c-2.383,7.273-10.207,11.234-17.48,8.85c-7.27-2.382-11.233-10.204-8.85-17.476
      C47.88,294.292,55.707,290.328,62.978,292.715z"/>
  </symbol>

  <symbol fill="currentColor" id="typeSport8" viewBox="0 0 496.285 496.285">
    <path d="M491.838,134.984c2.822-3.452,4.447-7.793,4.447-12.574c0-10.959-8.836-19.852-19.852-19.852
      c-4.857,0-9.305,1.731-12.699,4.667l-48.988,48.874l-59.144-59.096c-4.505-4.322-10.558-7.095-17.376-7.095l-92.708,0.057
      c-5.958,0-11.265,2.716-14.841,6.933l-63.992,73.746c-3.978,3.519-6.464,8.654-6.464,14.43c0,10.557,8.558,19.144,19.221,19.144
      c5.948,0,11.303-2.649,14.831-6.971l59.374-68.621l34.215,0.182L157.046,280.459l-88.463-0.229
      c-2.018-0.058-4.093,0.124-6.234,0.573c-13.263,2.945-21.516,15.979-18.465,29.262c2.601,11.656,13.043,19.498,24.528,19.335
      l102.816-0.182c21.755,0.756,30.017-9.352,30.017-9.352l50.72-56.553l58.914,57.299l-23.887,106.344
      c-0.574,1.961-0.812,4.055-0.812,6.235c0,13.617,11.083,24.69,24.699,24.69c11.887,0,21.87-8.482,24.165-19.718l29.089-129.678
      c6.234-20.187-4.657-30.352-4.657-30.352l-51.943-51.867l56.658-65.503l36.241,36.414c0,0,14.431,15.176,32.312-2.706
      L491.838,134.984z"/>
    <path d="M61.402,376.677c2.419,0,4.8-0.439,7.095-1.339l17.796-7c4.915-1.932,7.334-7.487,5.403-12.402
      c-1.941-4.915-7.478-7.315-12.403-5.393l-17.795,6.999c-2.161,0.822-12.623-5.967-19.402-23.198l-23.629-60.062
      c-1.922-4.915-7.478-7.324-12.403-5.393c-4.915,1.932-7.334,7.487-5.393,12.402l23.629,60.062
      C32.771,362.897,47.756,376.677,61.402,376.677z"/>
    <path d="M382.129,440.535c0-5.288-4.284-9.562-9.562-9.562c-5.279,0-9.562,4.274-9.562,9.562v19.125
      c0,2.381-10.175,9.562-28.688,9.562h-64.548c-5.278,0-9.562,4.274-9.562,9.562s4.284,9.562,9.562,9.562h64.548
      c27.263,0,47.812-12.336,47.812-28.688V440.535z"/>
    <path d="M400.097,100.225c25.465,0,46.101-20.712,46.101-46.168c0-25.475-20.636-46.12-46.101-46.12
      c-25.475,0-46.178,20.645-46.178,46.12C353.919,79.513,374.622,100.225,400.097,100.225z"/>
  </symbol>

  <symbol fill="currentColor" id="typeSport12" viewBox="0 0 293.582 293.582">
    <path d="m37.38,194.292l101.301-41.099-1.128,2.955c-1.718,3.548-2.055,7.758-0.576,11.747l10.887,29.378 24.707-19.662-3.327-8.978 9.873,3.77 20.516-16.326c-6.492-4.044-10.298-10.917-10.771-15.431l-5.322-50.83 17.256,49.58v0.001c1.378,3.958 4.643,6.955 8.694,7.997l48.369,12.432c0.001,0.001 0.002,0.001 0.003,0.001 6.643,1.704 13.487-2.273 15.215-8.995 1.719-6.689-2.31-13.5-8.995-15.218l-41.877-10.764-15.627-44.899 22.64,33.805 8.191-21.452c3.672-9.616-1.147-20.388-10.763-24.06l-31.05-11.855c-1.559-0.595-5.202-2.4-10.874-1.774l-53.05,7.553c-4.039,0.575-7.544,3.085-9.388,6.724-1.845,3.64-1.797,7.949 0.127,11.547l25.393,47.473-117.943,47.846-.125-.309c-2.076-5.116-7.904-7.58-13.026-5.507-5.117,2.076-7.583,7.908-5.507,13.026l.125,.308-5.085,2.063c-5.117,2.076-7.583,7.908-5.507,13.026 2.075,5.112 7.9,7.584 13.026,5.507l5.085-2.063 .125,.309c2.075,5.112 7.9,7.584 13.026,5.507 5.117-2.076 7.583-7.908 5.507-13.026l-.125-.307zm128.264-111.712l-5.72,14.981-7.042-13.164 12.762-1.817z"/>
    <circle cx="228.983" cy="28.938" r="27.59"/>
    <path d="m291.407,111.16c-3.44-4.323-9.733-5.036-14.052-1.599l-16.215,12.904 5.93,1.524c5.346,1.374 9.955,4.451 13.271,8.756l9.467-7.534c4.322-3.439 5.037-9.73 1.599-14.051z"/>
    <path d="m120.393,260.03l116.97-93.084-24.278-6.24-105.146,83.675-.208-.261c-3.438-4.321-9.729-5.038-14.051-1.598-4.322,3.438-5.037,9.729-1.598,14.051l.208,.261-4.294,3.417c-4.321,3.44-5.037,9.73-1.599,14.052 3.439,4.321 9.731,5.036 14.052,1.599l4.295-3.418 .207,.26c3.44,4.323 9.733,5.035 14.051,1.598 4.322-3.439 5.037-9.729 1.598-14.051l-.207-.261z"/>
    <path d="m256.992,243.432h-5.599c-5.523,0-10,4.478-10,10 0,5.522 4.477,10 10,10h5.599c2.427,0 4.401,1.975 4.401,4.401 0,2.428-1.975,4.402-4.401,4.402h-31.819l4.057-54.506c0.16-2.151-0.146-4.313-0.897-6.335l-6.285-16.924-24.702,19.657 1.723,4.641-3.98,53.467h-27.799l13.489-44.924-41.157,32.752c-3.268,10.885-3.223,10.507-3.444,12.233-5.01,0.543-8.911,4.784-8.911,9.938 0,5.522 4.478,10 10,10h119.726c13.455,0 24.401-10.947 24.401-24.402-0.001-13.453-10.947-24.4-24.402-24.4z"/>
  </symbol>

  <symbol fill="currentColor" id="typeSport5" viewBox="0 0 210.517 210.517">
    <path d="M113.668,24.071c0,10.098-8.216,18.314-18.313,18.314c-10.098,0-18.313-8.216-18.313-18.314
    	c0-10.099,8.216-18.314,18.313-18.314C105.452,5.757,113.668,13.973,113.668,24.071z M205.951,117.805
    	c-9.686,25.053-33.299,41.884-58.759,41.884c-1.767,0-3.536-0.087-5.296-0.253l-12.627,32.586c-0.768,1.981-2.659,3.194-4.663,3.194
    	c-0.601,0-1.212-0.108-1.806-0.339l-9.055-3.509c-0.018,1.925-1.149,3.75-3.033,4.554l-19.778,8.437
    	c-0.64,0.273-1.306,0.402-1.96,0.402c-1.942,0-3.79-1.139-4.601-3.039l-13.731-32.191c-0.216,0.027-0.434,0.036-0.65,0.06
    	c-0.47,0.053-0.941,0.089-1.412,0.131c-0.596,0.052-1.191,0.113-1.789,0.146c-0.663,0.038-1.327,0.047-1.991,0.061
    	c-0.415,0.009-0.829,0.038-1.243,0.038c-2.289,0-4.573-0.141-6.843-0.407c-0.091-0.01-0.181-0.024-0.271-0.035
    	c-0.622-0.076-1.242-0.159-1.862-0.255c-0.254-0.039-0.507-0.083-0.76-0.126c-0.44-0.074-0.88-0.149-1.318-0.232
    	c-0.392-0.074-0.782-0.155-1.172-0.237c-0.284-0.06-0.567-0.119-0.851-0.183c-0.516-0.116-1.03-0.24-1.542-0.37
    	c-0.141-0.036-0.281-0.071-0.422-0.108c-0.633-0.165-1.264-0.34-1.891-0.525c-0.004-0.001-0.007-0.002-0.01-0.003
    	c-17.956-5.299-33.231-18.809-41.162-37.363C-8.443,97.617,5.142,60.527,35.737,47.448c7.154-3.058,14.73-4.608,22.517-4.608
    	c15.987,0,31.085,6.409,42.603,17.36c11.828-17.077,30.97-27.815,51.295-27.815c7.083,0,14.027,1.296,20.64,3.854
    	C203.827,48.238,218.702,84.829,205.951,117.805z M104.529,168.682l8.012-20.674c-0.079-0.06-0.154-0.124-0.232-0.185
    	c-0.011-0.009-0.022-0.018-0.034-0.027c-0.672-0.516-1.332-1.046-1.98-1.59c-0.033-0.028-0.065-0.057-0.098-0.085
    	c-2.986,4.105-6.517,7.84-10.558,11.096L104.529,168.682z M102.19,188.685l-13.294-31.166c-0.929-2.177-0.204-4.706,1.735-6.061
    	c7.663-5.354,13.569-12.854,17.185-21.67L45.23,156.442c5.891,2.322,12.095,3.526,18.326,3.526c3.087,0,6.178-0.301,9.186-0.895
    	c0.324-0.064,0.649-0.095,0.97-0.095c1.971,0,3.8,1.169,4.597,3.038l13.302,31.182L102.19,188.685z M166.903,145.512l-47.458-18.423
    	c-1.025,3.57-2.362,7.027-3.996,10.334c1.841,1.665,3.804,3.198,5.897,4.564c1.979,1.291,2.784,3.791,1.931,5.994l-12.25,31.609
    	l10.726,4.156l12.243-31.594c0.855-2.207,3.145-3.513,5.474-3.127c2.526,0.416,5.111,0.626,7.684,0.626
    	C153.915,149.651,160.607,148.237,166.903,145.512z"/>
  </symbol>

  <symbol fill="currentColor" id="typeSport13" viewBox="0 0 63.067 63.067">
    <path d="M34.028,27.406l14.614-13.003L35.733,29.177c0.393,0.7,0.637,1.496,0.637,2.356c0,2.674-2.168,4.836-4.838,4.836
      c-2.672,0-4.837-2.162-4.837-4.836c0-2.672,2.165-4.837,4.837-4.837C32.452,26.696,33.297,26.964,34.028,27.406z M63.067,31.533
      c0,17.387-14.146,31.534-31.533,31.534C14.147,63.067,0,48.92,0,31.533C0,14.146,14.147,0,31.534,0
      C48.921,0,63.067,14.146,63.067,31.533z M56.163,42.228l-3.963-1.61l0.464-1.146l3.948,1.608c0.994-2.604,1.588-5.396,1.72-8.311
      h-4.233v-2.471h4.233c-0.139-3.03-0.767-5.926-1.834-8.615l-3.935,1.656l-0.479-1.138l3.936-1.656
      c-2.742-6.084-7.669-10.973-13.794-13.643l-1.612,3.963l-1.141-0.464l1.607-3.948c-2.598-0.996-5.398-1.588-8.313-1.722v4.235
      h-2.466V4.732c-3.03,0.138-5.926,0.769-8.614,1.834l1.656,3.934l-1.138,0.479l-1.656-3.934c-2.613,1.177-4.995,2.764-7.086,4.672
      l2.989,2.989l-1.745,1.745l-2.989-2.989c-1.981,2.169-3.624,4.65-4.814,7.378l3.963,1.611l-0.464,1.143l-3.947-1.607
      c-0.996,2.602-1.589,5.396-1.722,8.311h4.235v2.467H4.733c0.138,3.031,0.769,5.926,1.834,8.615l3.934-1.656l0.479,1.139
      L7.046,42.52c1.177,2.613,2.763,4.995,4.671,7.085l2.989-2.988l1.745,1.745l-2.989,2.985c4.776,4.361,11.109,7.051,18.072,7.051
      c6.962,0,13.289-2.68,18.07-7.051l-2.988-2.985l1.745-1.745l2.986,2.988C53.332,47.438,54.975,44.955,56.163,42.228z
       M22.625,48.368h17.819v-3.504H22.625V48.368z"/>
  </symbol>

  <symbol fill="currentColor" id="typeSport11" viewBox="0 0 497.359 497.36">
    <circle cx="386.559" cy="206.234" r="80.895"/>
    <path d="M212.304,221.333l-101.292,72.561c4.385-0.899,9.206-1.451,14.585-1.451c24.277,0,37.733,10.773,46.638,17.902
    c6.524,5.226,8.722,6.984,15.527,6.984c6.806,0,9.004-1.76,15.529-6.984c8.904-7.129,22.361-17.902,46.639-17.902
    c24.276,0,37.733,10.773,46.639,17.902c6.525,5.226,8.725,6.984,15.531,6.984c6.805,0,9.004-1.76,15.529-6.984
    c2.967-2.375,6.457-5.154,10.67-7.806l-70.828-119.685l-96.774-72.232l-110.56,31.361L46.23,205.774l114.974-22.583
    L212.304,221.333z"/>
    <path d="M450.717,329.981c-6.525,5.225-8.727,6.984-15.535,6.984s-9.008-1.761-15.535-6.984
    c-8.904-7.129-22.363-17.902-46.641-17.902s-37.734,10.773-46.639,17.902c-6.523,5.225-8.723,6.984-15.529,6.984
    c-6.809,0-9.004-1.761-15.531-6.984c-8.904-7.129-22.361-17.902-46.639-17.902c-24.277,0-37.733,10.773-46.638,17.902
    c-6.524,5.225-8.722,6.984-15.529,6.984c-6.806,0-9.003-1.761-15.527-6.984c-8.905-7.129-22.361-17.902-46.638-17.902
    c-24.277,0-37.734,10.773-46.639,17.902c-6.525,5.225-8.723,6.984-15.53,6.984c-6.806,0-9.004-1.761-15.529-6.984
    C37.734,322.852,24.277,312.079,0,312.079v49.773c6.806,0,9.004,1.76,15.529,6.982c8.904,7.131,22.361,17.903,46.638,17.903
    c24.278,0,37.734-10.772,46.639-17.902c6.524-5.225,8.723-6.983,15.53-6.983c6.806,0,9.004,1.76,15.528,6.982
    c8.904,7.131,22.361,17.903,46.638,17.903c24.277,0,37.733-10.772,46.638-17.903c6.525-5.224,8.723-6.982,15.529-6.982
    c6.808,0,9.005,1.76,15.53,6.983c8.904,7.13,22.361,17.902,46.641,17.902c24.275,0,37.732-10.772,46.637-17.903
    c6.525-5.224,8.723-6.982,15.531-6.982s9.008,1.761,15.533,6.983c8.904,7.13,22.363,17.902,46.643,17.902
    s37.736-10.772,46.641-17.902c6.527-5.224,8.727-6.983,15.535-6.983v-49.773C473.08,312.078,459.623,322.852,450.717,329.981z"/>
  </symbol>

</svg>
